<?xml version="1.0" standalone="no"?>
<!DOCTYPE svg PUBLIC "-//W3C//DTD SVG 20010904//EN"
 "http://www.w3.org/TR/2001/REC-SVG-20010904/DTD/svg10.dtd">
<svg version="1.0" xmlns="http://www.w3.org/2000/svg"
 width="600.000000pt" height="600.000000pt" viewBox="0 0 600.000000 600.000000"
 preserveAspectRatio="xMidYMid meet">

<g transform="translate(0.000000,600.000000) scale(0.100000,-0.100000)"
fill="#000000" stroke="none">
<path d="M3425 5283 c-160 -23 -409 -91 -570 -156 -79 -32 -322 -160 -420
-222 -230 -144 -499 -369 -609 -509 -22 -28 -43 -53 -46 -56 -19 -14 -96 -165
-121 -238 -26 -76 -47 -112 -65 -112 -13 0 -183 -89 -241 -126 -245 -156 -507
-417 -682 -677 -93 -139 -221 -419 -221 -486 0 -11 -4 -22 -9 -25 -13 -8 -45
-308 -43 -398 1 -14 -4 -15 -24 -8 -32 13 -34 13 -34 -2 0 -7 14 -27 30 -45
17 -18 30 -39 30 -47 0 -8 4 -18 10 -21 19 -12 11 -45 -10 -45 -23 0 -27 -18
-6 -26 8 -3 16 -15 19 -26 3 -11 10 -17 15 -14 6 4 8 -3 5 -16 -4 -19 -3 -20
7 -8 9 13 11 12 9 -5 -1 -11 0 -22 1 -25 4 -10 7 -80 3 -76 -3 2 -13 -3 -23
-12 -10 -9 -36 -28 -59 -42 -42 -24 -82 -75 -96 -120 -10 -34 -56 -79 -80 -80
-27 -1 -105 -37 -105 -48 0 -6 27 -8 63 -5 88 7 103 -2 110 -74 4 -32 9 -67
13 -79 4 -14 -1 -23 -15 -30 -25 -12 -134 -134 -126 -142 7 -7 95 39 95 50 0
5 7 8 15 8 8 0 15 5 15 11 0 5 4 8 9 4 5 -3 16 2 25 10 8 9 17 17 18 18 2 1
14 -6 28 -16 13 -9 35 -17 48 -17 13 0 21 -4 17 -9 -3 -5 4 -12 14 -16 11 -3
22 -14 26 -24 9 -30 112 -127 175 -164 55 -33 265 -140 350 -178 19 -9 86 -42
149 -73 62 -32 121 -59 130 -61 9 -2 42 -15 74 -30 33 -14 61 -24 65 -21 3 3
11 1 19 -6 7 -6 16 -8 20 -5 3 4 15 1 26 -4 20 -11 49 -18 102 -23 17 -2 41
-8 55 -13 14 -5 90 -10 170 -12 173 -3 275 14 524 89 91 27 182 52 203 56 21
4 42 9 48 12 5 3 16 7 25 8 16 2 124 23 245 48 57 12 168 39 330 82 11 3 25 6
32 8 7 1 16 5 19 9 4 4 13 7 20 7 7 0 25 5 41 12 15 6 30 12 33 13 3 1 12 5
20 8 8 4 34 13 57 21 24 8 73 36 110 62 190 132 303 278 373 485 31 90 43 113
80 147 27 27 40 47 37 57 -4 8 -1 15 5 15 19 0 2 112 -24 166 -38 75 -64 184
-48 194 10 6 1 27 -39 87 -29 43 -55 90 -58 106 -3 15 -9 27 -13 27 -5 0 -6 9
-3 20 3 11 0 20 -5 20 -6 0 -11 12 -11 27 -1 46 -12 117 -21 127 -5 5 -6 22
-3 37 4 20 1 29 -7 29 -9 0 -11 9 -6 30 3 17 2 30 -3 30 -5 0 -12 29 -16 65
-3 36 -10 65 -15 65 -4 0 -6 9 -3 20 3 11 0 20 -6 20 -6 0 -11 9 -11 21 0 27
-55 153 -88 204 -40 59 -67 90 -169 194 -51 52 -90 97 -87 100 3 3 42 6 87 7
45 0 136 6 202 13 66 7 145 14 175 17 99 10 114 12 220 28 389 58 764 167
1019 293 193 96 552 343 603 416 12 18 44 59 71 92 76 94 163 244 186 319 49
159 13 277 -103 335 -101 50 -500 46 -873 -8 -109 -16 -207 -32 -218 -35 -11
-3 -58 -14 -105 -25 -76 -17 -165 -44 -340 -101 -144 -47 -160 -50 -160 -32 0
9 14 32 30 51 17 18 30 40 30 47 0 7 7 20 16 28 8 9 12 22 8 28 -4 7 -4 10 1
6 10 -10 34 21 35 44 0 9 10 33 21 53 26 43 32 162 11 188 -28 34 -97 55 -198
62 -54 3 -148 10 -209 15 -114 9 -377 11 -430 3z m536 -87 c112 -8 214 -35
231 -60 12 -17 9 -56 -3 -56 -6 0 -9 -9 -6 -20 3 -10 2 -20 -2 -22 -3 -2 -15
-21 -26 -43 -41 -83 -127 -206 -196 -281 -45 -49 -66 -62 -204 -124 -86 -39
-175 -84 -240 -120 -79 -45 -300 -183 -339 -212 -25 -18 -70 -51 -102 -73 -31
-22 -68 -51 -83 -65 -15 -14 -49 -45 -76 -68 -66 -58 -167 -173 -217 -245 -44
-65 -27 -65 33 0 61 66 197 188 254 228 16 11 33 25 39 30 29 27 126 95 136
95 5 0 10 4 10 9 0 5 9 13 20 16 11 3 26 12 32 18 18 18 146 97 156 97 4 0 18
9 30 20 12 11 23 20 24 20 8 -3 50 18 105 51 33 21 64 35 67 32 3 -4 6 -1 6 5
0 7 3 11 8 10 7 -2 63 23 72 32 3 3 12 6 20 8 8 2 33 12 55 22 50 24 88 38 96
36 4 0 16 7 27 17 11 10 31 20 46 23 14 2 42 13 62 24 19 11 43 22 52 23 9 2
32 10 51 20 19 9 42 17 51 17 10 0 31 7 46 15 16 8 36 15 45 15 9 0 19 3 23 8
4 4 11 7 14 8 4 0 14 4 22 7 8 3 42 13 75 22 33 9 69 20 80 24 31 13 124 37
175 45 14 2 45 9 70 16 25 6 56 13 70 16 14 2 39 6 55 9 17 3 48 7 69 10 22 2
42 8 45 12 3 5 20 9 36 10 17 1 44 4 60 7 148 25 337 36 519 29 l178 -6 59
-44 c67 -51 83 -86 68 -154 -10 -41 -39 -115 -61 -154 -7 -11 -22 -40 -36 -64
-28 -54 -35 -64 -91 -132 -59 -72 -199 -207 -233 -225 -16 -8 -28 -19 -28 -24
0 -6 -6 -10 -14 -10 -8 0 -21 -7 -29 -14 -8 -8 -31 -24 -51 -35 -20 -12 -53
-31 -73 -42 -21 -12 -41 -26 -45 -32 -3 -6 -13 -12 -22 -13 -8 -1 -30 -13 -48
-27 -18 -13 -45 -27 -60 -31 -16 -3 -28 -11 -28 -16 0 -6 -7 -10 -15 -10 -8 0
-15 -4 -15 -10 0 -5 -4 -10 -9 -10 -5 0 -55 -22 -113 -49 -100 -48 -248 -102
-373 -136 -106 -29 -295 -72 -345 -80 -19 -2 -69 -11 -110 -18 -41 -8 -82 -14
-90 -14 -8 0 -82 -8 -165 -16 -175 -18 -360 -34 -498 -42 -106 -7 -187 -26
-207 -50 -11 -13 -6 -15 39 -15 38 0 62 -7 91 -25 22 -14 42 -25 45 -25 7 0
40 -29 86 -75 21 -22 39 -36 39 -32 0 4 21 -16 46 -45 26 -29 54 -61 63 -70
30 -32 37 -43 56 -90 11 -25 23 -44 27 -42 4 3 6 -1 3 -8 -3 -7 6 -44 19 -82
17 -47 26 -62 30 -50 3 11 3 2 0 -18 -3 -23 -1 -38 6 -38 5 0 10 -16 10 -35 0
-19 4 -35 9 -35 6 0 7 -16 4 -37 -4 -26 -3 -34 5 -29 9 5 10 -6 7 -41 -4 -37
-3 -43 5 -28 8 16 9 11 6 -24 -4 -44 13 -141 25 -141 4 0 5 -9 2 -20 -3 -11 0
-20 6 -20 6 0 11 -7 11 -16 0 -14 18 -58 61 -148 11 -22 19 -44 19 -49 0 -5
15 -40 34 -77 19 -38 38 -85 42 -104 3 -20 9 -34 13 -31 4 2 7 -27 7 -64 l-1
-68 -35 1 -35 1 -11 -70 c-5 -38 -13 -77 -16 -85 -4 -8 -12 -33 -18 -55 -11
-39 -59 -145 -70 -155 -11 -10 -50 -70 -50 -76 0 -15 -201 -214 -216 -214 -1
0 -26 -16 -55 -35 -30 -19 -69 -40 -89 -46 -19 -6 -39 -15 -45 -19 -5 -4 -32
-13 -60 -19 -27 -7 -57 -15 -65 -18 -8 -3 -24 -7 -35 -8 -113 -16 -374 -68
-445 -90 -25 -8 -79 -23 -120 -35 -101 -28 -271 -80 -290 -87 -8 -3 -19 -7
-25 -8 -5 -1 -13 -3 -17 -5 -5 -1 -11 -3 -15 -4 -5 -2 -28 -8 -53 -16 -25 -7
-56 -14 -70 -16 -14 -2 -43 -6 -65 -9 -63 -8 -363 -10 -429 -2 -32 4 -66 12
-75 16 -9 5 -36 12 -61 16 -55 9 -120 29 -180 57 -25 11 -52 22 -60 23 -8 2
-17 4 -20 5 -3 1 -8 2 -12 1 -5 0 -8 4 -8 9 0 6 -6 10 -12 10 -13 0 -40 13
-268 133 -219 114 -284 155 -345 214 -65 64 -105 112 -105 127 0 5 15 22 33
37 27 24 30 30 17 39 -8 6 -28 8 -45 5 -101 -20 -102 -19 -115 20 -16 49 -7
67 32 64 75 -5 89 11 41 46 -14 11 -31 25 -37 31 -6 6 -17 9 -23 7 -9 -3 -9 3
2 23 8 15 12 31 10 35 -3 4 2 9 10 13 8 3 15 12 15 21 0 8 12 23 28 33 96 60
126 99 115 154 -3 18 -10 38 -15 44 -12 16 2 46 20 42 10 -2 20 -24 29 -62 12
-52 37 -88 63 -91 8 -1 53 -16 98 -32 33 -12 42 -21 42 -39 0 -12 -4 -24 -10
-26 -5 -2 -14 -27 -20 -55 -18 -99 17 -191 91 -240 31 -20 56 -27 131 -33 l93
-7 105 -71 c140 -95 159 -95 251 1 27 28 49 48 49 43 0 -5 6 -4 13 1 6 6 26
13 42 17 17 4 67 25 112 48 l83 42 70 -12 c77 -13 142 -15 178 -6 32 9 27 24
-9 24 -36 0 -119 19 -135 31 -6 5 -19 10 -30 12 -23 4 -64 25 -82 44 -8 7 -18
11 -23 7 -5 -3 -12 3 -16 13 -8 21 -104 123 -117 123 -17 0 6 -54 54 -125 47
-70 48 -73 31 -89 -10 -9 -27 -18 -38 -20 -10 -2 -39 -13 -64 -24 -33 -16 -61
-20 -114 -19 -38 2 -75 5 -80 9 -6 3 -27 9 -48 13 -20 4 -40 11 -43 16 -3 5
-10 7 -15 4 -5 -4 -9 -1 -9 4 0 6 -7 11 -15 11 -8 0 -15 4 -15 8 0 5 -15 15
-33 24 -29 14 -34 14 -57 -1 -14 -8 -28 -19 -31 -24 -13 -18 -76 -42 -109 -42
-57 1 -128 42 -149 86 -11 22 -15 41 -10 45 13 8 11 64 -3 64 -9 0 -9 3 0 12
7 7 12 25 12 40 0 15 4 28 10 28 5 0 6 7 3 17 -4 11 -3 14 5 9 7 -4 12 -1 12
9 0 9 23 39 51 66 50 49 107 81 164 94 17 4 43 11 58 17 20 8 31 8 39 0 9 -9
15 -9 25 0 10 8 24 8 51 0 33 -10 173 -43 196 -46 5 0 11 5 13 11 13 36 -216
96 -330 86 l-65 -5 -15 33 c-8 19 -23 58 -32 87 -24 75 -86 149 -150 178 -46
21 -58 23 -103 14 -69 -13 -117 -46 -138 -95 -30 -75 -41 -84 -72 -62 -6 5
-12 6 -12 2 0 -17 -32 21 -46 53 -17 42 -20 157 -2 146 8 -5 10 4 6 34 -3 22
-2 44 3 49 5 5 12 36 15 68 3 33 9 62 13 65 5 3 15 38 22 78 7 39 17 72 22 72
5 0 7 9 4 21 -3 12 -3 18 0 15 7 -7 33 60 33 87 0 9 4 17 9 17 5 0 17 27 27
60 10 33 22 56 27 53 6 -4 8 0 4 10 -3 9 0 18 9 21 8 3 14 15 14 26 0 11 5 20
10 20 6 0 10 9 10 20 0 11 5 20 10 20 6 0 10 8 10 17 0 9 3 13 7 10 7 -7 25
20 44 65 6 16 14 26 19 23 4 -3 13 9 20 25 7 16 16 28 20 25 5 -3 14 8 21 24
7 16 16 28 20 26 3 -3 34 28 68 68 96 112 363 357 390 357 6 0 11 4 11 9 0 5
12 16 28 24 15 7 56 30 92 50 36 20 108 52 160 72 52 20 104 40 115 45 11 5
31 12 45 15 34 10 70 33 70 47 0 7 -21 8 -70 4 -63 -7 -70 -6 -70 11 0 10 7
29 15 43 8 14 19 36 25 50 6 13 18 31 26 40 8 8 34 42 59 75 59 80 85 113 115
144 14 15 43 48 64 74 21 26 67 70 102 97 35 28 64 57 64 65 0 8 7 15 15 15 8
0 15 5 15 12 0 6 3 9 6 5 3 -3 41 21 84 54 43 32 83 59 89 59 6 0 11 5 11 10
0 6 5 10 11 10 6 0 25 11 42 24 58 43 324 183 412 218 28 10 64 25 82 34 17 8
45 17 62 20 17 4 31 10 31 15 0 5 6 6 14 3 8 -3 17 -1 20 5 4 6 13 8 21 5 8
-4 18 1 21 10 3 9 10 13 16 10 5 -3 17 -2 26 2 9 4 24 8 32 10 8 1 35 8 60 14
57 15 81 19 149 25 30 3 56 6 57 8 5 4 440 -1 515 -7z m-3100 -2968 c13 -18
26 -35 29 -38 3 -3 13 -21 23 -40 9 -19 26 -50 37 -67 23 -39 15 -73 -24 -99
-31 -20 -53 -13 -58 18 -2 15 -11 24 -25 26 -12 2 -27 9 -33 17 -9 10 -6 15
10 20 11 4 27 17 36 30 13 19 13 31 4 67 -7 23 -21 55 -32 70 -16 23 -17 28
-4 28 8 0 25 -15 37 -32z m-347 -98 c36 -13 35 -42 -1 -38 -20 2 -29 9 -31 26
-4 25 -3 26 32 12z m222 -14 c20 -20 18 -48 -8 -101 -24 -49 -50 -64 -75 -43
-25 20 -62 107 -55 130 4 17 10 19 43 14 21 -3 40 -2 44 4 9 14 34 12 51 -4z"/>
<path d="M5235 4704 c-154 -31 -334 -82 -370 -103 -5 -3 -17 -6 -25 -8 -8 -1
-23 -6 -35 -12 -39 -19 -119 -53 -130 -55 -5 -1 -37 -15 -70 -30 -33 -16 -80
-38 -105 -49 -25 -11 -48 -25 -51 -30 -3 -5 -9 -8 -13 -8 -16 3 -131 -62 -231
-131 -61 -41 -139 -95 -175 -119 -36 -24 -66 -47 -68 -51 -2 -5 -7 -8 -11 -8
-7 0 -187 -114 -217 -137 -9 -7 -31 -20 -78 -47 -11 -6 -29 -19 -40 -28 -11
-10 -29 -21 -40 -24 -18 -5 -217 -86 -281 -113 -11 -5 -47 -19 -80 -32 -33
-13 -71 -29 -85 -36 -14 -7 -29 -13 -35 -13 -5 0 -21 -10 -35 -21 l-25 -20
120 5 c101 4 376 43 438 62 11 3 31 8 45 10 61 8 140 16 182 19 25 2 77 8 115
14 39 6 88 14 110 17 74 9 90 12 135 23 25 7 56 13 70 15 24 4 113 27 231 60
208 59 509 201 729 344 271 177 464 415 404 497 -14 18 -28 20 -162 22 -96 1
-171 -3 -217 -13z"/>
<path d="M1841 2869 c-37 -22 -81 -77 -81 -100 0 -26 13 -24 48 6 55 46 160
73 177 46 3 -6 13 -10 23 -9 9 0 27 -3 40 -6 37 -8 23 24 -23 55 -33 23 -50
27 -99 26 -34 -1 -69 -8 -85 -18z"/>
<path d="M735 2838 c-61 -34 -89 -90 -40 -80 14 2 25 8 25 12 0 9 55 32 88 36
14 2 22 -2 22 -12 0 -8 9 -14 19 -14 11 0 26 -3 35 -6 23 -9 21 38 -2 59 -22
20 -115 23 -147 5z"/>
<path d="M1828 2396 c-81 -39 -112 -70 -150 -148 -38 -75 -58 -166 -60 -268
-2 -99 -9 -92 85 -87 108 6 146 13 282 50 61 17 158 55 188 74 34 21 61 61 54
81 -4 15 30 50 68 68 37 17 78 54 70 63 -2 2 -25 -4 -51 -13 -60 -20 -100 -21
-108 0 -3 8 -2 12 3 9 5 -3 12 3 16 13 3 11 26 38 50 61 25 23 43 47 39 52 -3
5 -11 6 -17 2 -7 -4 -20 -9 -31 -10 -10 -2 -32 -13 -50 -26 -17 -12 -31 -22
-32 -22 0 0 -25 22 -55 49 -30 27 -68 55 -86 62 -52 22 -160 17 -215 -10z
m244 -76 c21 -20 40 -35 43 -32 3 3 5 -1 5 -9 0 -8 9 -33 20 -54 20 -39 41
-167 25 -152 -5 4 -18 -1 -29 -11 -12 -10 -33 -23 -48 -30 -27 -11 -28 -10
-28 17 0 20 -9 36 -27 50 -26 20 -27 22 -10 35 9 7 17 24 17 38 0 47 -30 123
-61 156 l-31 33 43 -3 c33 -2 51 -10 81 -38z m-178 -180 c-1 -59 -25 -109 -69
-142 -29 -22 -62 -6 -89 44 -10 21 -24 34 -29 31 -6 -3 -7 -1 -3 6 4 6 1 23
-8 36 -14 21 -14 25 4 48 19 24 22 25 50 11 25 -13 36 -13 65 -3 19 7 35 17
35 22 0 4 10 7 23 5 20 -3 22 -8 21 -58z"/>
<path d="M2601 2019 c-58 -7 -120 -23 -256 -66 -52 -17 -179 -80 -221 -111
-29 -21 -32 -52 -3 -52 11 0 50 16 87 35 37 19 70 34 75 34 4 0 26 11 50 24
23 13 71 31 107 42 36 10 70 22 75 25 6 4 60 20 120 35 61 15 117 31 125 36
19 11 -71 10 -159 -2z"/>
<path d="M1077 1900 c-51 -10 -90 -49 -90 -90 0 -68 121 -141 197 -119 41 12
81 53 96 99 17 50 7 85 -27 98 -39 15 -131 21 -176 12z"/>
<path d="M2520 1780 c-139 -10 -297 -55 -328 -92 -10 -13 -9 -18 3 -28 12 -10
24 -9 62 4 81 29 115 36 202 42 47 3 105 9 130 14 25 5 100 9 166 9 169 0 165
0 135 13 -14 6 -34 13 -45 14 -11 2 -45 8 -75 13 -93 17 -141 19 -250 11z"/>
</g>
</svg>
